# xmcd
#
# Track frame offsets:
#       151
#       10812
#       26791
#
# Disc length: 566 seconds
#
# Revision: 0
# Processed by: cddbd v1.4PL0 Copyright (c) Steve Scherf et al.
# Submitted via: CD-DA_X-Tractor v0.21
#
DISCID=1a023403
DTITLE=Dwight Yoakham - Crazy Little Thing Called Love
DYEAR=1900
DGENRE=
TTITLE0=Crazy Little Thing Called Love
TTITLE1=Let's Get Together
TTITLE2=Doin' What I Did
EXTD=
EXTT0=
EXTT1=
EXTT2=
PLAYORDER=
